Coordinates
version=1
nRows=19
nColumns=24
inDegrees=yes

Units are S.I. units (second, meters, Newtons, ...)
Angles are in degrees.

endheader
time	pelvis_tilt	pelvis_list	pelvis_rotation	pelvis_tx	pelvis_ty	pelvis_tz	hip_flexion_r	hip_adduction_r	hip_rotation_r	knee_angle_r	ankle_angle_r	subtalar_angle_r	mtp_angle_r	hip_flexion_l	hip_adduction_l	hip_rotation_l	knee_angle_l	ankle_angle_l	subtalar_angle_l	mtp_angle_l	lumbar_extension	lumbar_bending	lumbar_rotation
      4.22500000	    -17.00774188	     -4.95450187	      5.15612942	     -1.95709373	     -0.04164812	     -0.36532648	     44.41164282	      1.99555728	    -20.95300278	    -13.27657306	     -2.05388257	      0.65711608	     17.79832867	     -1.44869445	     -3.98898907	     -3.96853126	    -15.87983997	      8.87128541	     11.24432275	      9.25349797	     23.60092412	     -2.17120901	    -24.29355855
      4.23000000	    -17.05918063	     -5.21187513	      5.29176539	     -1.94905937	     -0.04226325	     -0.36509259	     44.42091693	      2.18683118	    -20.78557529	    -13.91297834	     -2.60054721	     -0.16516080	     17.80758121	     -1.44170183	     -4.45256465	     -3.91220914	    -16.65362320	      8.22898353	     11.79560446	      9.34627836	     23.78111341	     -1.95897094	    -24.48926214
      4.23500000	    -17.11769910	     -5.48516287	      5.33524119	     -1.94097570	     -0.04286268	     -0.36470572	     44.43878987	      2.48089326	    -20.45722102	    -14.52421435	     -3.30735317	     -1.22574999	     17.83165595	     -1.41119783	     -4.95640108	     -4.02299433	    -17.45968287	      7.50996932	     12.44483542	      9.61702881	     23.97488822	     -1.69556064	    -24.59338788
      4.24000000	    -17.17841083	     -5.76990033	      5.34379925	     -1.93288246	     -0.04341790	     -0.36426727	     44.46720550	      2.81932506	    -20.05972722	    -15.13102309	     -4.10943317	     -2.42160798	     17.84923406	     -1.35082648	     -5.48433097	     -4.17197951	    -18.29586106	      6.68401654	     13.09626088	     10.06088493	     24.16976313	     -1.40595704	    -24.67113378
      4.24500000	    -17.21798349	     -6.02056608	      5.19672530	     -1.92477432	     -0.04394101	     -0.36362632	     44.50051679	      3.25519658	    -19.44139279	    -15.75970063	     -5.00640515	     -3.77049316	     17.91124523	     -1.33472772	     -6.00166409	     -4.57980594	    -19.09099005	      5.66665878	     13.75551095	     11.18116400	     24.33573672	     -1.07468042	    -24.54571632
      4.25000000	    -17.31197096	     -6.36451020	      5.17484568	     -1.91659701	     -0.04440706	     -0.36314613	     44.57636494	      3.68040977	    -18.93187832	    -16.36937378	     -5.87137363	     -5.20669568	     17.78540409	     -1.17127204	     -6.61375463	     -4.77420675	    -19.98037825	      4.54846929	     14.33695748	     12.12740638	     24.58055719	     -0.72079599	    -24.66987033
      4.25500000	    -17.37390170	     -6.67171247	      5.08857965	     -1.90859406	     -0.04481094	     -0.36254175	     44.66326154	      4.13267410	    -18.28291534	    -17.04004650	     -6.77323447	     -6.73927856	     17.45405311	     -0.99886140	     -7.20569809	     -5.00430041	    -20.91377438	      3.31501873	     14.94798990	     13.49717126	     24.75195213	     -0.36704390	    -24.63072439
      4.26000000	    -17.40353675	     -6.99726793	      5.08001030	     -1.90050792	     -0.04508605	     -0.36202017	     44.71942616	      4.55715041	    -17.65312235	    -17.77204145	     -7.47029114	     -8.20996479	     16.57769885	     -0.82957361	     -7.82058986	     -5.11570041	    -21.77691437	      1.73317846	     15.29837870	     15.82596376	     24.90520853	     -0.03298651	    -24.75451796
      4.26500000	    -17.45986714	     -7.29095303	      4.99017862	     -1.89249928	     -0.04540176	     -0.36136501	     44.83052946	      5.02485162	    -16.84387065	    -18.55361726	     -8.09708581	     -9.74675144	     15.67444141	     -0.55950436	     -8.41842949	     -5.34021437	    -22.82934633	      0.21140937	     15.87594220	     17.29403415	     25.06400939	      0.29745565	    -24.78713450
      4.27000000	    -17.55921414	     -7.64559342	      4.86193527	     -1.88448251	     -0.04574253	     -0.36073628	     44.99895342	      5.56113851	    -16.10759747	    -19.35335893	     -8.69445132	    -11.33348078	     14.87838767	     -0.17439318	     -9.07587314	     -5.55091351	    -24.00509213	     -1.35018838	     16.41116880	     18.43624408	     25.27424116	      0.71686046	    -24.77099862
      4.27500000	    -17.54383439	     -7.91091987	      4.81921954	     -1.87651914	     -0.04589439	     -0.36009351	     45.05433874	      6.00053294	    -15.29873902	    -20.27031694	     -8.89509804	    -12.60983468	     13.05489274	      0.11279371	     -9.64857898	     -5.60407746	    -25.04370016	     -3.35402075	     16.67684990	     21.08096476	     25.34251942	      1.00693717	    -24.84796335
      4.28000000	    -17.57589276	     -8.18214159	      4.71196296	     -1.86862964	     -0.04611221	     -0.35941156	     45.18088113	      6.46786877	    -14.63753954	    -21.21119021	     -9.06963809	    -13.90019954	     11.69153484	      0.53385514	    -10.22543452	     -5.69793591	    -26.27373774	     -5.29782322	     17.04290826	     22.76461448	     25.44584739	      1.33375803	    -24.80280745
      4.28500000	    -17.53603019	     -8.46187369	      4.70747971	     -1.86081946	     -0.04617878	     -0.35889015	     45.19196114	      6.89018396	    -13.99187217	    -22.12945435	     -8.96234130	    -14.88046519	      9.90410214	      0.97025135	    -10.78325797	     -5.58462175	    -27.51828111	     -7.48377098	     17.00358841	     24.96878582	     25.46236708	      1.63277507	    -24.95216366
      4.29000000	    -17.51913683	     -8.69320679	      4.64293220	     -1.85309978	     -0.04628499	     -0.35826022	     45.23437163	      7.30025721	    -13.46376151	    -23.06374492	     -8.77887990	    -15.81459353	      8.47921291	      1.48973453	    -11.29411653	     -5.51538564	    -28.87008154	     -9.69622023	     17.06998108	     26.67418202	     25.48084455	      1.90768960	    -24.96310360
      4.29500000	    -17.48194715	     -8.95833480	      4.60344739	     -1.84541040	     -0.04632771	     -0.35775172	     45.20575194	      7.72093719	    -12.98505855	    -23.93194259	     -8.41659768	    -16.50795098	      7.05996330	      2.06450201	    -11.80897252	     -5.34991787	    -30.27990096	    -12.00742187	     16.83146699	     28.34009499	     25.47782757	      2.21783010	    -25.06252314
      4.30000000	    -17.42750918	     -9.17971681	      4.57983660	     -1.83786570	     -0.04632462	     -0.35722862	     45.13705559	      8.09078496	    -12.59932478	    -24.77127313	     -7.94216540	    -17.07865632	      5.80971124	      2.69662314	    -12.25885568	     -5.09047692	    -31.75854663	    -14.34567040	     16.56554105	     29.72780579	     25.43014053	      2.47776495	    -25.14646476
      4.30500000	    -17.38636472	     -9.37814724	      4.59657042	     -1.83045129	     -0.04627523	     -0.35673992	     45.04161643	      8.40535123	    -12.32814376	    -25.52424660	     -7.45801381	    -17.66815663	      5.06525511	      3.43155512	    -12.64525757	     -4.65610621	    -33.32770530	    -16.63707502	     16.33942133	     30.46619366	     25.37975279	      2.69601899	    -25.24043266
      4.31000000	    -17.22542830	     -9.59937639	      4.55989023	     -1.82309218	     -0.04611305	     -0.35636584	     44.76170741	      8.77533201	    -12.08710840	    -26.17589734	     -6.86133463	    -18.04074898	      4.82879401	      4.08398807	    -13.03794870	     -4.36035299	    -34.99463279	    -18.81135857	     15.79822239	     30.56860675	     25.19074915	      2.99867335	    -25.31551135
      4.31500000	    -17.26767670	     -9.73965695	      4.57725851	     -1.81593355	     -0.04608869	     -0.35586689	     44.71097682	      9.00547376	    -11.96927759	    -26.90480405	     -6.10573555	    -18.14735185	      3.51573787	      5.03420631	    -13.30281189	     -3.85381418	    -36.60907857	    -21.07523291	     15.16521461	     31.75686582	     25.18956298	      3.14660622	    -25.40423339
